<svg width="412" height="113" viewBox="0 0 412 113" fill="none" xmlns="http://www.w3.org/2000/svg">
<path d="M112.88 6L47.91 60.09H106.97C106.2 56.73 104.68 52.96 102.7 50.14H77.43L97.78 33.05L115.5 33.02L132.55 76.86H0C28.65 53.28 57.18 29.43 86.3 6H112.88Z" fill="#292B98"/>
<path d="M238.88 77.49H224.19L225.62 75.18L253.32 32.73H273.66V77.49H261.19V63.81H247.41M261.19 54.49V43.92L253.97 54.48H261.19V54.49Z" fill="#2B2C98"/>
<path d="M337.97 77.49H323.53L346.5 42.05H332.06L337.31 32.72H381.28C381.75 33.12 376.38 41.65 375.9 41.92C373.9 41.92 360.74 42.05 360.74 42.05" fill="#2B2C98"/>
<path d="M319.66 68.35C317.5 71.54 314.67 76.86 313.54 77.93L279.22 78.06L280.49 76.01L308.43 33.29H321.88L297.32 68.26" fill="#2B2C98"/>
<path d="M181.38 32.73C172.8 47.42 161.76 63.24 151.92 77.49H138.47L140.63 73.09L167.67 32.73H181.38Z" fill="#2B2C98"/>
<path d="M314.005 108.466C312.211 108.466 310.661 108.063 309.357 107.258C308.062 106.452 307.059 105.31 306.35 103.831C305.65 102.343 305.3 100.579 305.3 98.5393V98.5131C305.3 96.4648 305.65 94.701 306.35 93.2217C307.059 91.7337 308.062 90.587 309.357 89.7817C310.653 88.9764 312.198 88.5737 313.992 88.5737C315.427 88.5737 316.723 88.8582 317.878 89.4272C319.034 89.9874 319.975 90.7664 320.701 91.7643C321.428 92.7534 321.865 93.8913 322.014 95.1781L322.001 95.2831H318.692L318.679 95.2175C318.522 94.4734 318.224 93.8257 317.786 93.2742C317.349 92.714 316.806 92.2807 316.158 91.9744C315.511 91.6593 314.788 91.5017 313.992 91.5017C312.924 91.5017 311.996 91.7862 311.208 92.3551C310.421 92.9241 309.812 93.7338 309.383 94.7842C308.963 95.8258 308.753 97.0644 308.753 98.4999V98.5262C308.753 99.9617 308.963 101.205 309.383 102.255C309.812 103.305 310.421 104.115 311.208 104.684C311.996 105.253 312.928 105.538 314.005 105.538C314.81 105.538 315.533 105.398 316.171 105.117C316.819 104.837 317.358 104.443 317.786 103.936C318.224 103.419 318.522 102.815 318.679 102.124L318.706 102.045H322.014V102.15C321.848 103.411 321.406 104.513 320.688 105.459C319.97 106.404 319.043 107.144 317.905 107.678C316.767 108.203 315.467 108.466 314.005 108.466Z" fill="#292B98"/>
<path d="M285.697 107.993V89.0464H288.638L298.801 103.292L296.463 102.098H298.157V89.0464H301.413V107.993H298.485L288.323 93.7338L290.66 94.9286H288.966V107.993H285.697Z" fill="#292B98"/>
<path d="M277.635 107.993V89.0464H281.023V107.993H277.635Z" fill="#292B98"/>
<path d="M260.842 112.995L261.984 105.104H265.346L263.074 112.995H260.842Z" fill="#292B98"/>
<path d="M250.155 108.48C248.641 108.48 247.325 108.246 246.208 107.777C245.099 107.308 244.225 106.655 243.585 105.817C242.945 104.979 242.585 104.001 242.504 102.883L242.49 102.694H245.87L245.883 102.829C245.937 103.379 246.153 103.857 246.532 104.262C246.92 104.668 247.433 104.988 248.073 105.222C248.713 105.447 249.443 105.56 250.263 105.56C251.047 105.56 251.741 105.438 252.345 105.195C252.949 104.952 253.422 104.618 253.764 104.195C254.107 103.762 254.278 103.266 254.278 102.708V102.694C254.278 101.991 254.003 101.419 253.453 100.977C252.904 100.527 251.998 100.166 250.736 99.8959L248.641 99.4633C246.64 99.0398 245.185 98.3638 244.274 97.4356C243.373 96.4984 242.923 95.3043 242.923 93.8533V93.8398C242.923 92.6773 243.229 91.6589 243.842 90.7847C244.464 89.9106 245.315 89.2301 246.397 88.7435C247.487 88.2478 248.735 88 250.141 88C251.583 88 252.831 88.2433 253.886 88.73C254.94 89.2076 255.769 89.861 256.373 90.6901C256.977 91.5192 257.315 92.4565 257.387 93.5019L257.401 93.6776H254.075L254.048 93.5154C253.967 93.0017 253.755 92.5556 253.413 92.1771C253.079 91.7896 252.633 91.4832 252.074 91.2579C251.516 91.0326 250.862 90.9199 250.114 90.9199C249.402 90.9199 248.767 91.0326 248.208 91.2579C247.65 91.4741 247.208 91.7806 246.883 92.1771C246.568 92.5736 246.41 93.0512 246.41 93.61V93.6235C246.41 94.3084 246.676 94.8762 247.208 95.3268C247.749 95.7774 248.627 96.1289 249.844 96.3812L251.939 96.8273C253.309 97.1157 254.422 97.4987 255.278 97.9763C256.134 98.454 256.761 99.0488 257.157 99.7607C257.563 100.464 257.766 101.311 257.766 102.302V102.316C257.766 103.577 257.455 104.668 256.833 105.587C256.22 106.506 255.341 107.218 254.197 107.723C253.061 108.228 251.714 108.48 250.155 108.48Z" fill="#292B98"/>
<path d="M226.431 107.993V88.4868H239.056V91.4202H229.918V96.7058H238.556V99.477H229.918V105.06H239.056V107.993H226.431Z" fill="#292B98"/>
<path d="M214.9 108.48C213.386 108.48 212.07 108.246 210.952 107.777C209.844 107.308 208.97 106.655 208.33 105.817C207.69 104.979 207.33 104.001 207.248 102.883L207.235 102.694H210.615L210.628 102.829C210.682 103.379 210.898 103.857 211.277 104.262C211.664 104.668 212.178 104.988 212.818 105.222C213.458 105.447 214.188 105.56 215.008 105.56C215.792 105.56 216.486 105.438 217.09 105.195C217.693 104.952 218.167 104.618 218.509 104.195C218.852 103.762 219.023 103.266 219.023 102.708V102.694C219.023 101.991 218.748 101.419 218.198 100.977C217.648 100.527 216.743 100.166 215.481 99.8959L213.386 99.4633C211.385 99.0398 209.93 98.3638 209.019 97.4356C208.118 96.4984 207.668 95.3043 207.668 93.8533V93.8398C207.668 92.6773 207.974 91.6589 208.587 90.7847C209.209 89.9106 210.06 89.2301 211.142 88.7435C212.232 88.2478 213.48 88 214.886 88C216.328 88 217.576 88.2433 218.631 88.73C219.685 89.2076 220.514 89.861 221.118 90.6901C221.722 91.5192 222.06 92.4565 222.132 93.5019L222.145 93.6776H218.82L218.793 93.5154C218.712 93.0017 218.5 92.5556 218.158 92.1771C217.824 91.7896 217.378 91.4832 216.819 91.2579C216.261 91.0326 215.607 90.9199 214.859 90.9199C214.147 90.9199 213.512 91.0326 212.953 91.2579C212.394 91.4741 211.953 91.7806 211.628 92.1771C211.313 92.5736 211.155 93.0512 211.155 93.61V93.6235C211.155 94.3084 211.421 94.8762 211.953 95.3268C212.494 95.7774 213.372 96.1289 214.589 96.3812L216.684 96.8273C218.054 97.1157 219.167 97.4987 220.023 97.9763C220.879 98.454 221.506 99.0488 221.902 99.7607C222.308 100.464 222.51 101.311 222.51 102.302V102.316C222.51 103.577 222.199 104.668 221.578 105.587C220.965 106.506 220.086 107.218 218.942 107.723C217.806 108.228 216.459 108.48 214.9 108.48Z" fill="#292B98"/>
<path d="M199.827 107.993V88.4868H203.315V107.993H199.827Z" fill="#292B98"/>
<path d="M181.01 107.993V88.4868H188.891C190.288 88.4868 191.487 88.7346 192.487 89.2303C193.487 89.726 194.253 90.4244 194.785 91.3256C195.317 92.2268 195.582 93.2992 195.582 94.5429V94.5699C195.582 95.8587 195.258 97.0032 194.609 98.0035C193.969 98.9949 193.073 99.6978 191.919 100.112L196.177 107.993H192.203L188.364 100.653C188.346 100.653 188.319 100.653 188.283 100.653C188.247 100.653 188.215 100.653 188.188 100.653H184.498V107.993H181.01ZM184.498 97.9765H188.526C189.635 97.9765 190.495 97.6836 191.108 97.0978C191.721 96.512 192.027 95.6965 192.027 94.6511V94.624C192.027 93.6057 191.707 92.7991 191.067 92.2043C190.437 91.6005 189.567 91.2986 188.458 91.2986H184.498V97.9765Z" fill="#292B98"/>
<path d="M164.477 101.545V98.7335H169.668C170.921 98.7335 171.894 98.4136 172.588 97.7737C173.282 97.1249 173.629 96.2146 173.629 95.0431V95.016C173.629 93.8355 173.282 92.9252 172.588 92.2854C171.894 91.6455 170.921 91.3256 169.668 91.3256H164.477V88.4868H170.52C171.845 88.4868 173.003 88.7572 173.994 89.2979C174.985 89.8386 175.76 90.6001 176.319 91.5825C176.878 92.5558 177.157 93.6958 177.157 95.0025V95.0296C177.157 96.3273 176.878 97.4673 176.319 98.4496C175.76 99.4229 174.985 100.184 173.994 100.734C173.003 101.275 171.845 101.545 170.52 101.545H164.477ZM162.734 107.993V88.4868H166.221V107.993H162.734Z" fill="#292B98"/>
<path d="M143.916 107.993V88.4868H151.797C153.194 88.4868 154.393 88.7346 155.393 89.2303C156.394 89.726 157.16 90.4244 157.691 91.3256C158.223 92.2268 158.489 93.2992 158.489 94.5429V94.5699C158.489 95.8587 158.164 97.0032 157.516 98.0035C156.876 98.9949 155.979 99.6978 154.825 100.112L159.084 107.993H155.109L151.27 100.653C151.252 100.653 151.225 100.653 151.189 100.653C151.153 100.653 151.122 100.653 151.094 100.653H147.404V107.993H143.916ZM147.404 97.9765H151.432C152.541 97.9765 153.402 97.6836 154.014 97.0978C154.627 96.512 154.934 95.6965 154.934 94.6511V94.624C154.934 93.6057 154.614 92.7991 153.974 92.2043C153.343 91.6005 152.473 91.2986 151.365 91.2986H147.404V97.9765Z" fill="#292B98"/>
<path d="M126.965 107.993V88.4868H139.591V91.4202H130.452V96.7058H139.09V99.477H130.452V105.06H139.591V107.993H126.965Z" fill="#292B98"/>
<path d="M113.812 107.993V91.4202H107.81V88.4868H123.301V91.4202H117.299V107.993H113.812Z" fill="#292B98"/>
<path d="M87.9517 107.993V88.4868H90.9797L101.443 103.154L99.0365 101.924H100.78V88.4868H104.133V107.993H101.118L90.6553 93.3128L93.0615 94.5429H91.3177V107.993H87.9517Z" fill="#292B98"/>
<path d="M71 107.993V88.4868H83.6259V91.4202H74.4877V96.7058H83.1257V99.477H74.4877V105.06H83.6259V107.993H71Z" fill="#292B98"/>
<path d="M392.757 22.2883V6.71167H398.351C399.991 6.71167 401.27 7.13115 402.189 7.97011C403.126 8.79042 403.595 9.91835 403.595 11.3539C403.595 12.4352 403.297 13.3674 402.703 14.1504C402.108 14.9148 401.27 15.4462 400.189 15.7445L404.027 22.2883H402.189L398.514 15.9961C398.459 15.9961 398.387 15.9961 398.297 15.9961C398.225 15.9961 398.153 15.9961 398.081 15.9961H394.378V22.2883H392.757ZM394.351 14.5979H398.189C399.36 14.5979 400.279 14.3182 400.946 13.7589C401.613 13.181 401.946 12.3979 401.946 11.4098V11.3819C401.946 10.3938 401.604 9.62006 400.919 9.06075C400.252 8.4828 399.333 8.19383 398.162 8.19383H394.351V14.5979ZM410.351 14.3742C410.351 12.0251 409.802 9.89039 408.703 7.97011C407.622 6.04982 406.153 4.53038 404.297 3.41176C402.441 2.27451 400.378 1.70588 398.108 1.70588H397.919C395.631 1.70588 393.559 2.27451 391.703 3.41176C389.847 4.53038 388.369 6.04982 387.27 7.97011C386.189 9.89039 385.649 12.0251 385.649 14.3742V14.5699C385.649 16.9376 386.189 19.091 387.27 21.0299C388.369 22.9502 389.847 24.4696 391.703 25.5882C393.559 26.7068 395.631 27.2662 397.919 27.2662H398.108C400.378 27.2662 402.441 26.7068 404.297 25.5882C406.153 24.4696 407.622 22.9502 408.703 21.0299C409.802 19.091 410.351 16.9376 410.351 14.5699V14.3742ZM412 14.3742V14.5699C412 16.5834 411.64 18.4664 410.919 20.2189C410.216 21.9714 409.225 23.5095 407.946 24.8332C406.685 26.1382 405.216 27.1636 403.541 27.9094C401.865 28.6365 400.054 29 398.108 29H397.919C395.973 29 394.153 28.6365 392.459 27.9094C390.766 27.1636 389.279 26.1382 388 24.8332C386.739 23.5095 385.757 21.9714 385.054 20.2189C384.351 18.4664 384 16.5834 384 14.5699V14.3742C384 12.3607 384.351 10.487 385.054 8.75313C385.757 7.01929 386.739 5.49984 388 4.19479C389.279 2.8711 390.766 1.84571 392.459 1.11861C394.153 0.37287 395.973 0 397.919 0H398.108C400.054 0 401.865 0.37287 403.541 1.11861C405.216 1.84571 406.685 2.8711 407.946 4.19479C409.225 5.49984 410.216 7.01929 410.919 8.75313C411.64 10.487 412 12.3607 412 14.3742Z" fill="#292B98"/>
<path d="M240.19 32.72H196.55C186.83 47.26 175.47 62.22 167.35 77.48L181.95 77.71L191.29 63.18C192.19 63.44 201.01 77.48 202.46 77.48H215.91C215.91 73.52 202.9 59.66 202.84 57.35L240.19 32.72ZM198.78 48.34L204.9 38.78H214.69L198.79 48.34H198.78Z" fill="#2B2C98"/>
</svg>
